<svg width="40" height="37" viewBox="0 0 40 37" fill="none" xmlns="http://www.w3.org/2000/svg">
<path d="M15.6587 7.96395V1.32108C15.6585 0.591242 15.0209 -0.000232216 14.2346 6.83939e-08C13.8314 7.74966e-05 13.4472 0.15896 13.1772 0.437005L0.364378 13.6514C-0.104178 14.1358 -0.122947 14.8647 0.32025 15.3693L13.1332 29.9052C13.631 30.47 14.5279 30.5533 15.1365 30.0912C15.4662 29.8409 15.6578 29.4667 15.6587 29.0713V22.4866C26.9056 22.8262 33.9242 27.2887 37.0877 36.0975C37.2817 36.6364 37.8252 36.9998 38.4373 37C38.514 37.0002 38.5908 36.9944 38.6665 36.9828C39.3552 36.8785 39.861 36.3263 39.861 35.6785C39.8609 20.1172 29.7686 8.68543 15.6587 7.96395Z" fill="#00770F"/>
</svg>
