<svg width="28" height="28" viewBox="0 0 28 28" fill="none" xmlns="http://www.w3.org/2000/svg">
<path d="M14 0C6.27991 0 0 6.27991 0 14C0 21.7201 6.27991 28 14 28C21.7201 28 28 21.7201 28 14C28 6.27991 21.7201 0 14 0ZM3.67833 6.49117L7.94158 13.4377C8.22645 10.3443 10.8336 7.91304 14 7.91304H25.2383C25.4519 8.30626 25.6414 8.71409 25.8137 9.13043H17.6367C19.1207 10.2413 20.087 12.0077 20.087 14C20.087 15.0877 19.7962 16.1079 19.294 16.9924C19.2897 17.0009 19.2905 17.01 19.2857 17.0185L13.7182 26.7683C13.2635 26.758 12.8156 26.7233 12.3736 26.6673L16.4205 19.5829C15.6779 19.9061 14.8601 20.087 14 20.087C11.8337 20.087 9.93323 18.9453 8.85462 17.2361C8.84062 17.2184 8.82399 17.2044 8.81182 17.185L2.94124 7.61821C3.16706 7.22803 3.41355 6.85334 3.67833 6.49117ZM14 9.13043C12.7085 9.13043 11.4699 9.64348 10.5567 10.5567C9.64348 11.4699 9.13043 12.7085 9.13043 14C9.13043 15.2915 9.64348 16.5301 10.5567 17.4433C11.4699 18.3565 12.7085 18.8696 14 18.8696C15.2915 18.8696 16.5301 18.3565 17.4433 17.4433C18.3565 16.5301 18.8696 15.2915 18.8696 14C18.8696 12.7085 18.3565 11.4699 17.4433 10.5567C16.5301 9.64348 15.2915 9.13043 14 9.13043Z" fill="#939393"/>
</svg>
