<svg width="19" height="25" viewBox="0 0 19 25" fill="none" xmlns="http://www.w3.org/2000/svg">
<path d="M8.51318 0V6.71641C8.07943 6.53282 7.14338 6.51042 6.68213 6.51042C3.21213 6.51042 0 8.21094 0 13.0208C0 18.776 4.35068 19.5312 7.26318 19.5312C8.41318 19.5312 11.0132 19.4129 12.2632 19.0353V0H8.51318ZM14.7632 0V3.90625H18.5132V0H14.7632ZM14.7632 6.51042V17.8401C14.7632 19.814 13.6107 21.8687 11.0132 23.0484L14.5874 24.7345C18.2199 23.4324 18.5132 19.1422 18.5132 17.8401V6.51042H14.7632ZM7.22656 9.83175C7.62656 9.83175 8.07568 9.90814 8.51318 10.0123V16.1362C8.07568 16.2403 7.62656 16.3193 7.22656 16.3193C5.58906 16.3193 4.00146 15.7813 4.00146 13.0208C4.00146 10.2604 5.58906 9.83175 7.22656 9.83175Z" fill="#989898"/>
</svg>
