<svg width="30" height="30" viewBox="0 0 30 30" fill="none" xmlns="http://www.w3.org/2000/svg">
<path d="M27.1638 1.39473C27.0513 1.27051 26.8896 1.2002 26.7209 1.2002H3.27868C3.10993 1.2002 2.94821 1.27051 2.83571 1.39473C2.72087 1.51895 2.66462 1.68535 2.68102 1.8541L4.79274 25.5096C4.81383 25.758 4.98727 25.9643 5.22634 26.0346L14.8334 28.7768C14.8849 28.7932 14.9412 28.8002 14.9974 28.8002C15.0537 28.8002 15.1076 28.7932 15.1615 28.7768L24.7756 26.0346C25.0146 25.9643 25.1857 25.758 25.2092 25.5096L27.3185 1.8541C27.3349 1.68535 27.2787 1.51895 27.1638 1.39473ZM22.1084 9.55098H10.8209L11.0904 12.6049H21.8365L21.0302 21.6307L14.9951 23.4541L14.9365 23.4354L8.97165 21.6283L8.64587 17.951H11.5685L11.6951 19.3783L15.0302 20.0768L18.3045 19.3783L18.6537 15.5158H8.4279L7.63337 6.63301H22.3685L22.1084 9.55098Z" fill="#939393"/>
</svg>
