<svg width="30" height="30" viewBox="0 0 30 30" fill="none" xmlns="http://www.w3.org/2000/svg">
<path d="M26.0015 2.3999H4.00068C3.11709 2.3999 2.3999 3.11709 2.3999 4.00068V25.9991C2.3999 26.8827 3.11709 27.5999 4.00068 27.5999H25.9991C26.8827 27.5999 27.5999 26.8827 27.5999 26.0015V4.00068C27.5999 3.11709 26.8827 2.3999 26.0015 2.3999ZM16.1999 21.7101C16.1999 24.1077 14.7937 25.1999 12.7405 25.1999C10.8843 25.1999 9.546 23.9554 8.9999 22.7999L10.8866 21.6585C11.2499 22.303 11.803 22.7999 12.5999 22.7999C13.3616 22.7999 13.7999 22.5022 13.7999 21.3444V13.7999H16.1999V21.7101ZM21.4054 25.1999C19.2796 25.1999 18.0726 24.1288 17.3999 22.7999L19.1999 21.5999C19.6897 22.4015 20.2241 23.1679 21.3538 23.1679C22.303 23.1679 22.7999 22.6944 22.7999 22.0382C22.7999 21.2554 22.2843 20.9765 21.2413 20.5194L20.6694 20.2733C19.0171 19.5702 17.9179 18.689 17.9179 16.8233C17.9179 15.1077 19.228 13.7999 21.2718 13.7999C22.7272 13.7999 23.7726 14.3062 24.5272 15.6327L22.746 16.7788C22.3522 16.0733 21.9304 15.7968 21.2718 15.7968C20.6015 15.7968 20.1772 16.2233 20.1772 16.7788C20.1772 17.4655 20.6015 17.7421 21.5835 18.1687L22.1554 18.4147C24.103 19.2468 25.1999 20.0976 25.1999 22.0101C25.1999 24.0702 23.5804 25.1999 21.4054 25.1999Z" fill="#939393"/>
</svg>
