<svg width="29" height="17" viewBox="0 0 29 17" fill="none" xmlns="http://www.w3.org/2000/svg">
<path d="M14.4 0C6.32578 0 0 3.56363 0 8.112C0 12.6604 6.32578 16.224 14.4 16.224C22.4742 16.224 28.8 12.6604 28.8 8.112C28.8 3.56363 22.4742 0 14.4 0ZM12.9047 2.496H14.4773L13.9781 4.992H15.382C16.2727 4.992 16.8703 5.12119 17.2102 5.44537C17.543 5.76469 17.6438 6.28875 17.5102 7.00294L16.8867 9.984H15.2883L15.8625 7.22719C15.9328 6.84937 15.9047 6.58612 15.7828 6.44719C15.6609 6.30825 15.3938 6.24 14.993 6.24H13.7344L12.975 9.984H11.4L12.9047 2.496ZM6 4.992H9.19922C10.725 4.992 11.6484 6.05475 11.2875 7.64156C10.868 9.48431 9.74297 9.984 7.67578 9.984H6.68672L6.37266 11.856H4.78359L6 4.992ZM18.6 4.992H21.7992C23.325 4.992 24.2484 6.05475 23.8875 7.64156C23.468 9.48431 22.343 9.984 20.2758 9.984H19.2867L18.9727 11.856H17.3836L18.6 4.992ZM7.36172 6.24L6.90938 8.736H7.93594C8.82422 8.736 9.64922 8.63119 9.7875 7.254C9.83906 6.72019 9.62578 6.24 8.59922 6.24H7.36172ZM19.9617 6.24L19.5094 8.736H20.5359C21.4242 8.736 22.2492 8.63119 22.3875 7.254C22.4391 6.72019 22.2258 6.24 21.1992 6.24H19.9617Z" fill="#989898"/>
</svg>
