<svg width="28" height="27" viewBox="0 0 28 27" fill="none" xmlns="http://www.w3.org/2000/svg">
<path fill-rule="evenodd" clip-rule="evenodd" d="M19.5387 0.00199469C19.0709 -0.0143646 18.5812 0.0704585 18.0902 0.235995C17.1083 0.567068 16.0794 1.21225 15.0234 2.10556C14.6096 2.45565 14.192 2.85583 13.773 3.28043C13.3633 2.86661 12.9543 2.47717 12.5496 2.13481C11.4945 1.24222 10.4684 0.596787 9.48867 0.266463C8.50899 -0.06386 7.53419 -0.0740955 6.73359 0.40662C5.93299 0.887335 5.45423 1.76977 5.23945 2.81731C5.02468 3.86484 5.04833 5.11232 5.26406 6.5089C5.33899 6.994 5.44586 7.50291 5.56758 8.02137C5.11012 8.16556 4.66587 8.31716 4.25391 8.48449C3.01065 8.98951 1.98193 9.59368 1.23281 10.3126C0.483697 11.0316 0 11.9041 0 12.8622C0 13.8204 0.483697 14.6917 1.23281 15.4107C1.98193 16.1296 3.01065 16.735 4.25391 17.24C4.69441 17.4189 5.17133 17.58 5.66367 17.7324C5.48658 18.4205 5.3431 19.0883 5.24531 19.7214C5.02941 21.1191 5.00661 22.3667 5.22187 23.4166C5.43714 24.4665 5.91615 25.354 6.7207 25.8371C7.52526 26.3201 8.50442 26.3083 9.48633 25.9772C10.4682 25.6461 11.496 25.0022 12.552 24.1089C12.962 23.762 13.3767 23.3663 13.7918 22.9462C14.2091 23.3689 14.6255 23.7664 15.0375 24.115C16.0926 25.0076 17.1199 25.6518 18.0996 25.9821C19.0793 26.3124 20.0541 26.3226 20.8547 25.8419C21.6553 25.3612 22.1329 24.4788 22.3477 23.4312C22.5624 22.3837 22.5388 21.1375 22.323 19.7409C22.225 19.1061 22.0814 18.4361 21.9035 17.7458C22.4121 17.5897 22.9041 17.4243 23.3578 17.24C24.6011 16.735 25.6298 16.1296 26.3789 15.4107C27.128 14.6917 27.6117 13.8204 27.6117 12.8622C27.6117 11.9041 27.128 11.0316 26.3789 10.3126C25.6298 9.59368 24.6011 8.98951 23.3578 8.48449C22.9399 8.31476 22.4889 8.16118 22.0242 8.01528C22.1469 7.49364 22.2559 6.98108 22.3312 6.49306C22.5471 5.09535 22.57 3.8465 22.3547 2.79659C22.1394 1.74668 21.6592 0.860462 20.8547 0.37737C20.4524 0.135824 20.0065 0.018354 19.5387 0.00199469ZM19.4836 1.27193C19.7772 1.28028 20.0276 1.35293 20.2418 1.48156C20.6702 1.73881 20.9869 2.23948 21.1559 3.06349C21.3248 3.88751 21.319 5.00083 21.1195 6.29196C21.0512 6.73402 20.9521 7.20253 20.8395 7.68256C19.6121 7.37538 18.2673 7.14744 16.834 7.01346C16.1144 5.97677 15.3751 5.03231 14.6297 4.19449C15.024 3.79422 15.4157 3.41986 15.798 3.0964C16.7735 2.27121 17.6969 1.70971 18.4676 1.44987C18.8529 1.31995 19.19 1.26358 19.4836 1.27193ZM8.09766 1.27559C8.39291 1.26702 8.73075 1.32323 9.11719 1.45353C9.89005 1.71412 10.8151 2.27537 11.7914 3.10128C12.1661 3.41824 12.549 3.78548 12.9352 4.17621C12.1842 5.02089 11.4388 5.97353 10.7145 7.01956C9.28719 7.15597 7.94782 7.38515 6.72656 7.69353C6.61475 7.21616 6.51559 6.75006 6.44766 6.31024C6.24804 5.01799 6.24306 3.90451 6.4125 3.07812C6.58194 2.25173 6.9012 1.74728 7.33359 1.48765C7.54979 1.35784 7.8024 1.28416 8.09766 1.27559ZM13.7918 5.09271C14.2806 5.64589 14.7694 6.25122 15.2543 6.90256C14.7779 6.8819 14.2956 6.86965 13.8059 6.86965C13.3063 6.86965 12.8149 6.8823 12.3293 6.90378C12.8143 6.25194 13.3029 5.6463 13.7918 5.09271ZM13.8059 8.12984C14.6218 8.12984 15.4171 8.16471 16.1906 8.22368C16.7229 9.01876 17.243 9.86224 17.7387 10.755C18.1742 11.5395 18.5683 12.3227 18.927 13.0962C18.5645 13.88 18.1638 14.6739 17.7223 15.4692C17.3336 16.1692 16.9278 16.8341 16.5152 17.4752C15.6414 17.5512 14.736 17.5934 13.8059 17.5934C12.8533 17.5934 11.9275 17.5487 11.0344 17.4691C10.6287 16.8373 10.2297 16.1824 9.84727 15.4935C9.40677 14.7 9.008 13.9077 8.64609 13.1255C9.00952 12.3389 9.41008 11.5421 9.85312 10.7441C10.3461 9.85595 10.8648 9.01735 11.3941 8.22612C12.176 8.16582 12.9805 8.12984 13.8059 8.12984ZM17.7352 8.37968C18.7242 8.50803 19.6529 8.68622 20.5172 8.90009C20.2607 9.7744 19.9449 10.6876 19.5621 11.6301C19.3136 11.1319 19.0562 10.632 18.7781 10.131C18.4411 9.52395 18.0901 8.94519 17.7352 8.37968ZM9.81211 8.38943C9.46465 8.94437 9.12276 9.51188 8.79258 10.1067C8.51092 10.614 8.24819 11.1207 7.99687 11.6252C7.61744 10.6884 7.30345 9.78039 7.04883 8.91106C7.90666 8.6968 8.82992 8.51924 9.81211 8.38943ZM21.7043 9.23159C22.1296 9.36543 22.5404 9.5051 22.9172 9.65815C24.0633 10.1237 24.9698 10.675 25.5574 11.2389C26.145 11.8028 26.4 12.3405 26.4 12.8622C26.4 13.3839 26.145 13.9217 25.5574 14.4856C24.9698 15.0495 24.0633 15.6008 22.9172 16.0663C22.4985 16.2364 22.0384 16.3906 21.5602 16.5368C21.219 15.4393 20.7835 14.2943 20.2652 13.1255C20.8611 11.7836 21.3425 10.4752 21.7043 9.23159ZM5.8875 9.23768C6.24514 10.4688 6.72035 11.7642 7.30781 13.0926C6.78614 14.2682 6.34851 15.4197 6.00586 16.5234C5.54444 16.3811 5.09999 16.231 4.69453 16.0663C3.54844 15.6008 2.64187 15.0495 2.0543 14.4856C1.46672 13.9217 1.21172 13.3839 1.21172 12.8622C1.21172 12.3405 1.46672 11.8028 2.0543 11.2389C2.64187 10.675 3.54844 10.1237 4.69453 9.65815C5.06552 9.50745 5.46941 9.36977 5.8875 9.23768ZM13.8059 9.99574C12.1561 9.99574 10.8059 11.4 10.8059 13.1157C10.8059 14.8315 12.1561 16.2357 13.8059 16.2357C15.4556 16.2357 16.8059 14.8315 16.8059 13.1157C16.8059 11.4 15.4556 9.99574 13.8059 9.99574ZM8.01094 14.5917C8.26336 15.0987 8.52588 15.6076 8.80898 16.1175C9.03049 16.5165 9.2567 16.9049 9.48633 17.2863C8.68055 17.1701 7.9146 17.023 7.19531 16.8488C7.42405 16.1202 7.69771 15.3639 8.01094 14.5917ZM19.5773 14.5917C19.8918 15.3657 20.1656 16.1232 20.3953 16.8537C19.6737 17.0277 18.9054 17.1743 18.0973 17.29C18.3299 16.9039 18.5596 16.5107 18.784 16.1066C19.065 15.6003 19.3265 15.095 19.5773 14.5917ZM6.84961 18.0602C7.9355 18.3277 9.11249 18.5333 10.3605 18.6672C11.1937 19.9204 12.0616 21.0465 12.9352 22.0309C12.5445 22.427 12.1574 22.7987 11.7785 23.1192C10.8031 23.9444 9.87845 24.5047 9.10781 24.7646C8.33717 25.0244 7.76203 24.9901 7.33359 24.7329C6.90516 24.4756 6.58965 23.9749 6.4207 23.1509C6.25175 22.3269 6.25642 21.2148 6.45586 19.9237C6.54633 19.338 6.68155 18.7108 6.84961 18.0602ZM20.7422 18.0651C20.9117 18.7196 21.0473 19.3491 21.1383 19.9383C21.3379 21.2306 21.3429 22.344 21.1734 23.1704C21.004 23.9968 20.6871 24.5025 20.2547 24.7621C19.8223 25.0217 19.2416 25.0556 18.4687 24.795C17.6959 24.5344 16.7708 23.9732 15.7945 23.1473C15.4129 22.8244 15.0231 22.4497 14.6297 22.0504C15.5091 21.0621 16.3831 19.9303 17.2219 18.6696C18.4731 18.5366 19.6533 18.3323 20.7422 18.0651ZM11.9262 18.7951C12.5422 18.83 13.1664 18.8536 13.8059 18.8536C14.4242 18.8536 15.0281 18.8315 15.6246 18.7988C15.0148 19.6544 14.3933 20.4322 13.7742 21.1327C13.1555 20.4307 12.5351 19.6515 11.9262 18.7951Z" fill="#939393"/>
</svg>
