<svg width="30" height="30" viewBox="0 0 30 30" fill="none" xmlns="http://www.w3.org/2000/svg">
<path d="M14.9997 1.2002C7.39051 1.2002 1.19971 7.391 1.19971 15.0002C1.19971 22.6094 7.39051 28.8002 14.9997 28.8002C22.6089 28.8002 28.7997 22.6094 28.7997 15.0002C28.7997 7.391 22.6089 1.2002 14.9997 1.2002ZM18.3888 5.40137C20.6824 5.36321 22.5733 6.19805 22.9685 7.74863C23.5343 9.96683 21.6089 12.6195 19.1435 13.5729C16.9421 14.4243 15.1221 14.2905 14.3739 14.0451C13.5237 13.7661 13.0256 13.2047 12.9044 12.8885C12.857 12.7643 12.7742 12.5574 12.9044 12.4854C12.9842 12.441 13.0154 12.4511 13.229 12.6869C13.4324 12.9107 14.2485 13.5125 15.7989 13.3385C19.8687 12.8825 22.3192 9.71976 21.5446 8.01816C21.0022 6.82716 17.866 6.29076 13.9474 8.24316C9.16356 10.627 8.90457 12.5921 8.86377 13.3385C8.75157 15.3911 11.3972 16.4709 12.8282 17.9979C12.8618 18.0339 12.8943 18.0702 12.9267 18.1068C13.3599 17.9454 13.9596 17.8547 14.913 17.8385C17.2278 17.7989 18.5353 19.3241 18.4813 20.6885C18.4393 21.7631 17.4532 22.2059 17.2696 22.2365C17.1364 22.2593 17.0632 22.2636 17.0446 22.1592C17.0314 22.0872 17.0796 22.0536 17.2356 21.9564C17.3916 21.8598 17.8589 21.5406 17.9423 20.958C18.0257 20.376 17.5896 18.9842 15.3618 18.7244C14.5722 18.632 13.9505 18.6947 13.4177 18.8357C13.8041 19.6871 13.8785 21.4004 12.9899 22.7264C12.0689 24.1004 10.3549 24.9351 8.68447 24.4701C8.14567 24.3201 7.33031 23.2069 8.03291 21.6541C8.69891 20.1823 11.5435 18.7424 11.9317 18.551V18.5439C10.6135 17.4093 7.40776 15.88 6.95596 13.54C6.82756 12.877 7.1382 11.2888 9.0876 9.46543C10.7274 7.93183 13.0086 6.75777 15.1146 6.00957C16.2206 5.61657 17.3462 5.41871 18.3888 5.40137ZM12.479 19.2436C12.44 19.2652 12.4014 19.2864 12.363 19.3068L12.3642 19.3115C12.3648 19.3109 11.0404 19.9362 10.12 20.9088C9.26442 21.813 9.02661 22.9478 9.50361 23.2244C9.94581 23.4806 10.9758 23.1771 11.7138 22.3725C11.9556 22.1085 12.1533 21.8224 12.3009 21.517C12.3303 21.4558 12.3577 21.3942 12.3829 21.3318C12.4081 21.2694 12.4322 21.2062 12.4532 21.142C12.644 20.5648 12.6638 19.927 12.479 19.2436Z" fill="#939393"/>
</svg>
