<svg width="28" height="28" viewBox="0 0 28 28" fill="none" xmlns="http://www.w3.org/2000/svg">
<path d="M19.6094 18.906C19.6094 18.5727 19.4531 18.3071 19.1406 18.1092C17.1302 16.9112 14.8021 16.3123 12.1562 16.3123C10.7708 16.3123 9.27603 16.4894 7.67187 16.8435C7.23437 16.9373 7.01562 17.2081 7.01562 17.656C7.01562 17.8644 7.08593 18.0441 7.22656 18.1951C7.36718 18.3461 7.55208 18.4217 7.78124 18.4217C7.83333 18.4217 8.02603 18.38 8.35937 18.2967C9.73437 18.0154 11 17.8748 12.1562 17.8748C14.5104 17.8748 16.5781 18.4112 18.3594 19.4842C18.5573 19.5987 18.7291 19.656 18.875 19.656C19.0729 19.656 19.2448 19.5857 19.3906 19.4451C19.5364 19.3045 19.6094 19.1248 19.6094 18.906ZM21.1094 15.5467C21.1094 15.13 20.9271 14.8123 20.5625 14.5935C18.0937 13.1248 15.2396 12.3904 12 12.3904C10.4062 12.3904 8.82812 12.6092 7.26562 13.0467C6.76562 13.1821 6.51562 13.5154 6.51562 14.0467C6.51562 14.3071 6.60677 14.5284 6.78906 14.7107C6.97135 14.893 7.1927 14.9842 7.45312 14.9842C7.52604 14.9842 7.71874 14.9425 8.03124 14.8592C9.30208 14.5154 10.6094 14.3435 11.9531 14.3435C14.8594 14.3435 17.401 14.9894 19.5781 16.281C19.8281 16.4165 20.026 16.4842 20.1719 16.4842C20.4323 16.4842 20.6536 16.393 20.8359 16.2107C21.0182 16.0284 21.1094 15.8071 21.1094 15.5467ZM22.7969 11.6717C22.7969 11.1821 22.5885 10.8175 22.1719 10.5779C20.8594 9.8175 19.3333 9.24198 17.5937 8.85136C15.8542 8.46073 14.0677 8.26542 12.2344 8.26542C10.1094 8.26542 8.21353 8.51021 6.54687 8.99979C6.30729 9.07271 6.10677 9.20552 5.94531 9.39823C5.78385 9.59094 5.70312 9.84354 5.70312 10.156C5.70312 10.479 5.80989 10.7498 6.02343 10.9685C6.23697 11.1873 6.5052 11.2967 6.82812 11.2967C6.9427 11.2967 7.15104 11.255 7.45312 11.1717C8.83853 10.7862 10.4375 10.5935 12.25 10.5935C13.9062 10.5935 15.5182 10.7706 17.0859 11.1248C18.6536 11.479 19.9739 11.9737 21.0469 12.6092C21.2656 12.7342 21.4739 12.7967 21.6719 12.7967C21.9739 12.7967 22.237 12.6899 22.4609 12.4764C22.6849 12.2628 22.7969 11.9946 22.7969 11.6717ZM26 13.9998C26 16.1769 25.4635 18.1847 24.3906 20.0232C23.3177 21.8618 21.862 23.3175 20.0234 24.3904C18.1849 25.4633 16.1771 25.9998 14 25.9998C11.8229 25.9998 9.8151 25.4633 7.97656 24.3904C6.13802 23.3175 4.68229 21.8618 3.60937 20.0232C2.53646 18.1847 2 16.1769 2 13.9998C2 11.8227 2.53646 9.8149 3.60937 7.97636C4.68229 6.13782 6.13802 4.68209 7.97656 3.60917C9.8151 2.53626 11.8229 1.9998 14 1.9998C16.1771 1.9998 18.1849 2.53626 20.0234 3.60917C21.862 4.68209 23.3177 6.13782 24.3906 7.97636C25.4635 9.8149 26 11.8227 26 13.9998Z" fill="#939393"/>
</svg>
