<svg width="25" height="30" viewBox="0 0 25 30" fill="none" xmlns="http://www.w3.org/2000/svg">
<path d="M15.7875 23.125C15.7875 21.4025 14.4261 20 12.7515 20H11.537C9.86234 20 8.50098 21.4025 8.50098 23.125V26.875C8.50098 28.5975 9.86234 30 11.537 30H12.7515C13.1595 30 13.5481 29.9138 13.9039 29.7638C14.108 29.9063 14.3351 30 14.5731 30C14.884 30 15.1949 29.8775 15.4317 29.6338C15.8507 29.2025 15.8774 28.5475 15.558 28.0612C15.7037 27.695 15.7875 27.295 15.7875 26.875V23.125ZM10.9298 26.875V23.125C10.9298 22.78 11.2031 22.5 11.537 22.5H12.7515C13.0854 22.5 13.3587 22.78 13.3587 23.125V25.8188C12.8935 25.5363 12.2924 25.5787 11.8929 25.9912C11.4933 26.4037 11.4508 27.0213 11.7253 27.5H11.537C11.2031 27.5 10.9298 27.22 10.9298 26.875V26.875Z" fill="#939393"/>
<path d="M23.074 30H19.4307C18.7592 30 18.2163 29.44 18.2163 28.75V21.25C18.2163 20.56 18.7592 20 19.4307 20C20.1023 20 20.6452 20.56 20.6452 21.25V27.5H23.074C23.7456 27.5 24.2884 28.06 24.2884 28.75C24.2884 29.44 23.7456 30 23.074 30Z" fill="#939393"/>
<path d="M3.03605 30H1.21442C0.542846 30 0 29.44 0 28.75C0 28.06 0.542846 27.5 1.21442 27.5H3.03605C3.37002 27.5 3.64326 27.22 3.64326 26.875C3.64326 26.53 3.37002 26.25 3.03605 26.25C1.36137 26.25 0 24.8475 0 23.125C0 21.4025 1.36137 20 3.03605 20H4.85769C5.52926 20 6.07211 20.56 6.07211 21.25C6.07211 21.94 5.52926 22.5 4.85769 22.5H3.03605C2.70209 22.5 2.42884 22.78 2.42884 23.125C2.42884 23.47 2.70209 23.75 3.03605 23.75C4.71074 23.75 6.07211 25.1525 6.07211 26.875C6.07211 28.5975 4.71074 30 3.03605 30Z" fill="#939393"/>
<path d="M20.645 13.125V17.725C20.2685 17.575 19.8556 17.5 19.4305 17.5C18.2283 17.5 17.1596 18.1125 16.4916 19.05C15.5201 18.1 14.2085 17.5 12.7512 17.5H11.5368C10.0795 17.5 8.76792 18.1 7.79639 19.05C7.12846 18.1125 6.05976 17.5 4.85749 17.5H3.64307V13.125C3.64307 16.1625 11.2696 16.25 12.144 16.25C13.0184 16.25 20.645 16.1625 20.645 13.125Z" fill="#939393"/>
<path d="M20.645 10.625C20.645 13.6625 13.0135 13.75 12.144 13.75C11.2745 13.75 3.64307 13.6625 3.64307 10.625V5.625C3.64307 8.6625 11.2745 8.75 12.144 8.75C13.0135 8.75 20.645 8.6625 20.645 5.625V10.625Z" fill="#939393"/>
<path d="M12.144 0C11.2696 0 3.64307 0.0874999 3.64307 3.125C3.64307 6.1625 11.2696 6.25 12.144 6.25C13.0184 6.25 20.645 6.1625 20.645 3.125C20.645 0.0874999 13.0184 0 12.144 0Z" fill="#939393"/>
</svg>
