<svg width="68" height="68" viewBox="0 0 68 68" fill="none" xmlns="http://www.w3.org/2000/svg">
<rect width="68" height="68" fill="black"/>
<circle cx="6.5" cy="6.5" r="3.5" fill="#2ADC41" fill-opacity="0.37"/>
<circle cx="6.5" cy="17.5" r="3.5" fill="#2ADC41" fill-opacity="0.37"/>
<circle cx="6.5" cy="28.5" r="3.5" fill="#2ADC41" fill-opacity="0.37"/>
<circle cx="6.5" cy="39.5" r="3.5" fill="#2ADC41" fill-opacity="0.37"/>
<circle cx="6.5" cy="50.5" r="3.5" fill="#2ADC41" fill-opacity="0.37"/>
<circle cx="6.5" cy="61.5" r="3.5" fill="#2ADC41" fill-opacity="0.37"/>
<circle cx="17.5" cy="6.5" r="3.5" fill="#2ADC41" fill-opacity="0.37"/>
<circle cx="17.5" cy="17.5" r="3.5" fill="#2ADC41" fill-opacity="0.37"/>
<circle cx="17.5" cy="28.5" r="3.5" fill="#2ADC41" fill-opacity="0.37"/>
<circle cx="17.5" cy="39.5" r="3.5" fill="#2ADC41" fill-opacity="0.37"/>
<circle cx="17.5" cy="50.5" r="3.5" fill="#2ADC41" fill-opacity="0.37"/>
<circle cx="17.5" cy="61.5" r="3.5" fill="#2ADC41" fill-opacity="0.37"/>
<circle cx="28.5" cy="6.5" r="3.5" fill="#2ADC41" fill-opacity="0.37"/>
<circle cx="28.5" cy="17.5" r="3.5" fill="#2ADC41" fill-opacity="0.37"/>
<circle cx="28.5" cy="28.5" r="3.5" fill="#2ADC41" fill-opacity="0.37"/>
<circle cx="28.5" cy="39.5" r="3.5" fill="#2ADC41" fill-opacity="0.37"/>
<circle cx="28.5" cy="50.5" r="3.5" fill="#2ADC41" fill-opacity="0.37"/>
<circle cx="28.5" cy="61.5" r="3.5" fill="#2ADC41" fill-opacity="0.37"/>
<circle cx="39.5" cy="6.5" r="3.5" fill="#2ADC41" fill-opacity="0.37"/>
<circle cx="39.5" cy="17.5" r="3.5" fill="#2ADC41" fill-opacity="0.37"/>
<circle cx="39.5" cy="28.5" r="3.5" fill="#2ADC41" fill-opacity="0.37"/>
<circle cx="39.5" cy="39.5" r="3.5" fill="#2ADC41" fill-opacity="0.37"/>
<circle cx="39.5" cy="50.5" r="3.5" fill="#2ADC41" fill-opacity="0.37"/>
<circle cx="39.5" cy="61.5" r="3.5" fill="#2ADC41" fill-opacity="0.37"/>
<circle cx="50.5" cy="6.5" r="3.5" fill="#2ADC41" fill-opacity="0.37"/>
<circle cx="50.5" cy="17.5" r="3.5" fill="#2ADC41" fill-opacity="0.37"/>
<circle cx="50.5" cy="28.5" r="3.5" fill="#2ADC41" fill-opacity="0.37"/>
<circle cx="50.5" cy="39.5" r="3.5" fill="#2ADC41" fill-opacity="0.37"/>
<circle cx="50.5" cy="50.5" r="3.5" fill="#2ADC41" fill-opacity="0.37"/>
<circle cx="50.5" cy="61.5" r="3.5" fill="#2ADC41" fill-opacity="0.37"/>
<circle cx="61.5" cy="6.5" r="3.5" fill="#2ADC41" fill-opacity="0.37"/>
<circle cx="61.5" cy="17.5" r="3.5" fill="#2ADC41" fill-opacity="0.37"/>
<circle cx="61.5" cy="28.5" r="3.5" fill="#2ADC41" fill-opacity="0.37"/>
<circle cx="61.5" cy="39.5" r="3.5" fill="#2ADC41" fill-opacity="0.37"/>
<circle cx="61.5" cy="50.5" r="3.5" fill="#2ADC41" fill-opacity="0.37"/>
<circle cx="61.5" cy="61.5" r="3.5" fill="#2ADC41" fill-opacity="0.37"/>
</svg>
